<?xml version="1.0" encoding="UTF-8"?>
<svg width="1010px" height="124px" viewBox="0 0 1010 124" version="1.1" xmlns="http://www.w3.org/2000/svg" xmlns:xlink="http://www.w3.org/1999/xlink">
    <!-- Generator: Sketch 60.1 (88133) - https://sketch.com -->
    <title>Path 3 Copy</title>
    <desc>Created with Sketch.</desc>
    <defs>
        <linearGradient x1="50%" y1="0%" x2="50%" y2="100%" id="linearGradient-1">
            <stop stop-color="#FF1C95" offset="0%"></stop>
            <stop stop-color="#E7007B" offset="100%"></stop>
        </linearGradient>
    </defs>
    <g id="Page-1" stroke="none" stroke-width="1" fill="none" fill-rule="evenodd">
        <path d="M0,49.725154 C46.9522507,72.1012173 87.1922596,83.289249 120.720027,83.289249 C213.211919,83.289249 221.436531,4 290.313545,4 C393.529664,4 458.495755,101.502194 570.21177,101.502194 C654.414873,101.502194 647.369275,0.52891272 729.186005,0.52891272 C803.916955,0.52891272 897.52162,28.1713735 1010,83.4562952 C978.037225,72.8685262 947.619489,67.5746417 918.746794,67.5746417 C896.399497,64 831.143896,21.5961571 727.828196,21.5961571 C671.194748,21.5961571 681.056712,124 563.546356,124 C469.849525,124 373.460799,26.4678163 292.313545,26.4678163 C223.5761,26.4678163 241.901335,93.9391915 121.943701,93.9391915 C85.7417522,93.9391915 45.093852,79.201179 0,49.725154 Z" id="Path-3-Copy" fill="url(#linearGradient-1)"></path>
    </g>
</svg>